<svg width="23" height="22" viewBox="0 0 23 22" fill="none" xmlns="http://www.w3.org/2000/svg">
<g opacity="0.7">
<path d="M4.88879 13.7827C5.73211 13.1094 6.66044 12.7393 7.71073 12.7178C8.79364 12.6955 9.7778 13.0072 10.6142 13.6968C11.1063 14.1021 11.6353 14.2894 12.2691 14.2644C12.9544 14.2378 13.644 14.2868 14.3284 14.2516C15.4045 14.1966 16.2856 14.4688 16.7493 15.605C17.3848 14.9266 17.9739 14.2894 18.5717 13.6599C19.1153 13.0871 19.7671 12.838 20.552 13.0501C21.7912 13.3851 22.4233 14.8373 21.6882 15.8867C20.5649 17.49 19.3849 19.0581 18.1466 20.5747C17.4046 21.4833 16.3345 21.9565 15.158 21.9659C12.6556 21.9848 10.1514 21.9711 7.65147 21.8826C6.6905 21.8483 5.73898 21.5718 4.70759 21.3923C4.19576 21.9771 3.4366 22.0226 2.64481 21.9934C2.03079 21.9711 1.41419 21.9926 0.799305 21.9874C0.24196 21.9831 0.00407918 21.759 0.00322041 21.2145C-0.00107347 18.7249 -0.00107347 16.2353 0.00322041 13.7457C0.00322041 13.215 0.236807 12.978 0.755507 12.9737C1.59968 12.9668 2.44386 12.9703 3.28804 12.9728C3.94414 12.9746 4.46799 13.2605 4.88879 13.7827ZM5.25119 20.1196C6.58401 20.5146 7.90739 20.7018 9.2591 20.7001C11.0763 20.6975 12.8943 20.6898 14.7115 20.7027C15.918 20.7113 16.867 20.2381 17.5823 19.2711C18.1947 18.4432 18.8164 17.6214 19.4339 16.797C19.8023 16.3049 20.1844 15.8214 20.5348 15.3164C20.8448 14.8707 20.625 14.2928 20.1286 14.2868C19.9088 14.2842 19.634 14.4319 19.4734 14.5985C18.5863 15.5122 17.724 16.45 16.8601 17.3852C16.4539 17.8258 15.9739 18.1152 15.365 18.1186C13.705 18.1281 12.045 18.1375 10.385 18.1057C10.1642 18.1015 9.86024 17.9082 9.74946 17.7141C9.50471 17.2873 9.87656 16.8391 10.4433 16.8365C11.8741 16.8305 13.3056 16.8365 14.7364 16.833C15.2405 16.8322 15.535 16.5943 15.5393 16.1993C15.5445 15.8042 15.2456 15.5509 14.751 15.5492C13.8493 15.5449 12.9475 15.5406 12.0467 15.5492C11.2549 15.5578 10.5662 15.307 9.95041 14.8106C8.4278 13.5826 6.56254 13.7561 5.25034 15.2331V20.1179L5.25119 20.1196ZM1.3223 14.2619V20.6992C1.48117 20.6992 1.60827 20.6992 1.73623 20.6992C2.25149 20.6992 2.76676 20.7096 3.28116 20.695C3.70111 20.6829 3.94414 20.439 3.94672 20.0131C3.9553 18.3247 3.9553 16.6364 3.94672 14.948C3.945 14.5221 3.70282 14.2748 3.28288 14.2653C2.64052 14.2498 1.9973 14.261 1.32316 14.261L1.3223 14.2619Z" fill="#7B7E80"/>
<path d="M11.269 1.84213C11.5644 1.52011 11.8246 1.17576 12.1432 0.897537C14.2874 -0.971046 17.5797 0.22945 18.2049 3.0993C18.5484 4.67334 18.089 6.04301 17.1023 7.25467C16.6703 7.78536 16.2023 8.29716 15.6931 8.75228C14.4145 9.8961 13.1049 11.0064 11.8022 12.1236C11.4193 12.4525 11.1573 12.4577 10.7769 12.1288C9.36004 10.9034 7.92854 9.69344 6.54514 8.43112C5.51038 7.48738 4.64822 6.40453 4.34166 4.98077C3.83844 2.6459 5.2811 0.407205 7.56101 0.0491177C8.8989 -0.16127 9.99978 0.333355 10.8774 1.34751C10.9521 1.43424 11.0199 1.52698 11.0904 1.61629C11.1513 1.69443 11.2132 1.77172 11.2681 1.84213H11.269ZM11.2157 10.9249C11.4862 10.699 11.6752 10.5496 11.8538 10.389C13.1504 9.22286 14.4789 8.08849 15.7283 6.87339C16.5785 6.04644 17.1255 5.03401 17.0113 3.76825C16.9074 2.62014 16.144 1.63947 15.1066 1.37585C14.016 1.09934 13.0379 1.52612 12.3845 2.59266C12.1998 2.89493 12.0676 3.22983 11.9233 3.55614C11.7988 3.83866 11.6262 4.04562 11.2913 4.04819C10.9573 4.05077 10.7795 3.85069 10.6533 3.56645C10.5021 3.22811 10.3596 2.88119 10.1655 2.56861C9.60821 1.66781 8.81646 1.15515 7.7276 1.32604C6.60525 1.50294 5.93287 2.21825 5.65207 3.29681C5.31287 4.60035 5.73966 5.7416 6.63788 6.63982C8.11145 8.11253 9.67605 9.49422 11.2149 10.9257L11.2157 10.9249Z" fill="#7B7E80"/>
</g>
</svg>
