<svg width="25" height="26" viewBox="0 0 25 26" fill="none" xmlns="http://www.w3.org/2000/svg">
<path d="M0.0078293 13.0166C-0.24184 6.31419 5.51598 0.120341 12.0961 0.0399815C15.4498 -0.251672 18.7126 1.07622 21.2506 3.24199C20.2095 4.40917 19.1502 5.56285 18.0187 6.64293C15.7844 5.25884 13.0943 4.20405 10.4829 5.14083C6.27106 6.36364 3.72035 11.4341 5.27899 15.6353C6.56977 20.023 11.804 22.431 15.9062 20.5878C18.0303 19.8123 19.4307 17.814 20.0453 15.6668C17.6109 15.6173 15.176 15.6482 12.7415 15.5797C12.7355 14.1028 12.7294 12.6317 12.7355 11.1548C16.7952 11.1486 20.861 11.1363 24.9268 11.1734C25.1765 14.7918 24.6528 18.6643 22.3458 21.5684C19.1866 25.714 13.35 26.9305 8.60184 25.3042C3.56272 23.6167 -0.101849 18.4406 0.0078293 13.0166Z" fill="#7F7F89"/>
</svg>
