<svg width="22" height="25" viewBox="0 0 22 25" fill="none" xmlns="http://www.w3.org/2000/svg">
<g clip-path="url(#clip0_1_70)">
<path d="M11.0976 7.05217C10.1006 7.05217 8.55733 5.96561 6.93208 6.00488C4.78784 6.03107 2.82116 7.19617 1.7149 9.04201C-0.511279 12.7468 1.14129 18.2189 3.31282 21.2298C4.37811 22.696 5.63461 24.3455 7.30083 24.2931C8.89875 24.2277 9.49972 23.2982 11.439 23.2982C13.3648 23.2982 13.9111 24.2931 15.6046 24.2539C17.3254 24.2277 18.4181 22.7614 19.4697 21.2822C20.6852 19.5803 21.1906 17.9309 21.2178 17.8392C21.1768 17.8261 17.8718 16.6086 17.8308 12.9431C17.8035 9.87983 20.4394 8.41362 20.5623 8.34822C19.0599 6.24052 16.7519 6.00488 15.946 5.95252C13.8427 5.79542 12.081 7.05217 11.0976 7.05217ZM14.6486 3.96267C15.5363 2.94157 16.1236 1.51464 15.9597 0.100803C14.6896 0.153167 13.1599 0.912447 12.2449 1.93355C11.4254 2.83684 10.7152 4.28995 10.9065 5.67761C12.3131 5.78233 13.7608 4.98378 14.6486 3.96267Z" fill="#7F7F89"/>
</g>
<defs>
<clipPath id="clip0_1_70">
<rect width="21.4571" height="24.5224" fill="white" transform="scale(1.01947)"/>
</clipPath>
</defs>
</svg>
