<svg width="20" height="20" viewBox="0 0 20 20" fill="none" xmlns="http://www.w3.org/2000/svg">
<g opacity="0.7">
<path fill-rule="evenodd" clip-rule="evenodd" d="M19.2308 4.53739C19.2308 6.61737 17.5436 8.30557 15.4625 8.30557C13.3825 8.30557 11.6964 6.61737 11.6964 4.53739C11.6964 2.45638 13.3825 0.769224 15.4625 0.769224C17.5436 0.769224 19.2308 2.45638 19.2308 4.53739Z" stroke="#7B7E80" stroke-width="1.5" stroke-linecap="round" stroke-linejoin="round"/>
<path fill-rule="evenodd" clip-rule="evenodd" d="M8.30458 4.53739C8.30458 6.61737 6.61743 8.30557 4.5364 8.30557C2.45641 8.30557 0.769224 6.61737 0.769224 4.53739C0.769224 2.45638 2.45641 0.769224 4.5364 0.769224C6.61743 0.769224 8.30458 2.45638 8.30458 4.53739Z" stroke="#7B7E80" stroke-width="1.5" stroke-linecap="round" stroke-linejoin="round"/>
<path fill-rule="evenodd" clip-rule="evenodd" d="M19.2308 15.3968C19.2308 17.4778 17.5436 19.1639 15.4625 19.1639C13.3825 19.1639 11.6964 17.4778 11.6964 15.3968C11.6964 13.3158 13.3825 11.6286 15.4625 11.6286C17.5436 11.6286 19.2308 13.3158 19.2308 15.3968Z" stroke="#7B7E80" stroke-width="1.5" stroke-linecap="round" stroke-linejoin="round"/>
<path fill-rule="evenodd" clip-rule="evenodd" d="M8.30458 15.3968C8.30458 17.4778 6.61743 19.1639 4.5364 19.1639C2.45641 19.1639 0.769224 17.4778 0.769224 15.3968C0.769224 13.3158 2.45641 11.6286 4.5364 11.6286C6.61743 11.6286 8.30458 13.3158 8.30458 15.3968Z" stroke="#7B7E80" stroke-width="1.5" stroke-linecap="round" stroke-linejoin="round"/>
</g>
</svg>
